<svg viewBox="0 0 333 421.33" xmlns="http://www.w3.org/2000/svg"><path d="m55.07 100.96h12.45v25.77h-12.45z" fill="#314e5d" transform="matrix(-.81 .58 -.58 -.81 177.57 170.4)"/><rect fill="#e7e7e7" height="32.62" rx="15.07" transform="matrix(-.811472 .5843913 -.5843913 -.811472 149.72 143.26)" width="37.57" x="32.97" y="79.47"/><path d="m68 88.81a15 15 0 0 0 -16.77.56l-6 4.35a15.07 15.07 0 0 0 -3.42 21l.72 1a14.9 14.9 0 0 1 -4.26-4l-1.46-2a15.07 15.07 0 0 1 3.42-21l6-4.35a15.08 15.08 0 0 1 21 3.42z" fill="#fff"/><path d="m48.17 119.79a18.56 18.56 0 0 1 -15.09-7.71l-1.45-2a18.57 18.57 0 0 1 4.22-25.92l6-4.34a18.57 18.57 0 0 1 25.94 4.18l1.45 2a18.57 18.57 0 0 1 -4.24 26l-6 4.34a18.47 18.47 0 0 1 -10.83 3.45zm4.53-36.49a11.48 11.48 0 0 0 -6.7 2.18l-6 4.34a11.57 11.57 0 0 0 -2.7 16.18l1.45 2a11.58 11.58 0 0 0 16.15 2.63l6-4.34a11.57 11.57 0 0 0 2.63-16.15l-1.45-2a11.49 11.49 0 0 0 -7.53-4.66 11.68 11.68 0 0 0 -1.85-.18z" fill="#314e5d"/><path d="m264.98 100.96h12.45v25.77h-12.45z" fill="#314e5d" transform="matrix(.811472 .5843913 -.5843913 .811472 117.67 -137.03)"/><rect fill="#e7e7e7" height="32.62" rx="15.07" transform="matrix(.811472 .5843913 -.5843913 .811472 108.91 -146.02)" width="37.57" x="261.97" y="79.47"/><path d="m264.5 88.81a15 15 0 0 1 16.77.56l6 4.35a15.07 15.07 0 0 1 3.42 21l-.72 1a14.9 14.9 0 0 0 4.26-4l1.46-2a15.07 15.07 0 0 0 -3.42-21l-6-4.35a15.08 15.08 0 0 0 -21 3.42z" fill="#fff"/><path d="m284.33 119.79a18.46 18.46 0 0 1 -10.83-3.5l-6-4.34a18.57 18.57 0 0 1 -4.24-25.95l1.45-2a18.57 18.57 0 0 1 25.92-4.21l6 4.34a18.57 18.57 0 0 1 4.22 25.92l-1.45 2a18.56 18.56 0 0 1 -15.07 7.74zm-6.74-9.17a11.57 11.57 0 0 0 16.15-2.62l1.45-2a11.57 11.57 0 0 0 -2.63-16.15l-6-4.34a11.57 11.57 0 0 0 -16.15 2.63l-1.45 2a11.57 11.57 0 0 0 2.63 16.15z" fill="#314e5d"/><path d="m151.28 65.08h28.95v33h-28.95z" fill="#ced0d0"/><path d="m189.22 107.08h-40.94v-45h40.95zm-28.95-12h16.95v-21h-16.94z" fill="#314e5d"/><rect fill="#e7e7e7" height="67.74" rx="15.07" width="78" x="127.75" y="6"/><path d="m207.79 15.86c-2.12-1.13-13.54-5.78-16.11-5.78l-36.86 7a15.07 15.07 0 0 0 -15.07 15.07v37.6a15 15 0 0 0 1 5.29 15.06 15.06 0 0 1 -8-13.29v-37.6a15.07 15.07 0 0 1 15.07-15.07h47.86c6.46 0 9.97 1.07 12.11 6.78z" fill="#fff"/><circle cx="165.25" cy="254.58" fill="#e7e7e7" r="160.5"/><path d="m327.75 256.58a160.62 160.62 0 0 1 -185.89 158.5 160.51 160.51 0 0 0 24.78-319h.61a160.5 160.5 0 0 1 160.5 160.5z" fill="#ced0d0"/><path d="m166.5 421.33c-91.81 0-166.5-74.69-166.5-166.5s74.69-166.5 166.5-166.5 166.5 74.67 166.5 166.5-74.69 166.5-166.5 166.5zm0-321c-85.19 0-154.5 69.31-154.5 154.5s69.31 154.5 154.5 154.5 154.5-69.33 154.5-154.5-69.31-154.5-154.5-154.5z" fill="#314e5d"/><circle cx="165.5" cy="254.83" fill="#e3fcff" r="127.75"/><path d="m298.25 253.83a127.54 127.54 0 0 1 -52 102.84 127.75 127.75 0 0 0 -164.54-194.67 127.74 127.74 0 0 1 216.54 91.84z" fill="#fff" opacity=".8"/><path d="m273.78 326.72a127.76 127.76 0 1 1 -155.56-188.78 127.78 127.78 0 0 0 155.56 188.78z" fill="#b1c4c7"/><g fill="#314e5d"><path d="m166.63 388.7c-73.75 0-133.75-60-133.75-133.75s60-133.75 133.75-133.75 133.75 60 133.75 133.8-60 133.7-133.75 133.7zm0-255.5a121.75 121.75 0 1 0 121.75 121.8 121.89 121.89 0 0 0 -121.75-121.8z"/><path d="m160.63 127.08h12v35h-12z"/><path d="m160.63 341.08h12v35h-12z"/><path d="m84.09 160.42h12v35h-12z" transform="matrix(.70710678 -.70710678 .70710678 .70710678 -99.42 115.81)"/><path d="m235.41 311.74h12v35h-12z" transform="matrix(.70710678 -.70710678 .70710678 .70710678 -162.1 267.14)"/><path d="m221.91 171.92h35v12h-35z" transform="matrix(.70710678 -.70710678 .70710678 .70710678 -55.68 221.42)"/><path d="m70.59 323.24h35v12h-35z" transform="matrix(.70710678 -.70710678 .70710678 .70710678 -207 158.7)"/><path d="m256.75 248.95h35v12h-35z"/><path d="m38.75 248.95h35v12h-35z"/></g><circle cx="160.75" cy="257.08" fill="#e7e7e7" r="25"/><path d="m185.75 256.08a25 25 0 0 1 -25 25 24.49 24.49 0 0 1 -4.64-.44 25 25 0 0 0 -3.72-48.12 24.64 24.64 0 0 1 8.36-1.44 25 25 0 0 1 25 25z" fill="#ced0d0"/><path d="m187.05 240.38 28-28c6.83-6.83-3.77-17.44-10.61-10.61l-28 28c-6.83 6.83 3.77 17.44 10.61 10.61z" fill="#314e5d"/><path d="m162.75 285.08a31 31 0 1 1 31-31 31 31 0 0 1 -31 31zm0-50a19 19 0 1 0 19 19 19 19 0 0 0 -19-19z" fill="#314e5d"/><path d="m203.75 20.07v37.6a15.08 15.08 0 0 1 -10.62 14.4c-3.75-8.52-6.31-17.35-6.53-26.68-.3-13.32 4.23-25.86 10.75-37.63a15 15 0 0 1 6.4 12.31z" fill="#ced0d0"/><path d="m191.68 79.74h-47.86a21.09 21.09 0 0 1 -21.07-21.07v-37.6a21.09 21.09 0 0 1 21.07-21.07h47.86a21.09 21.09 0 0 1 21.07 21.07v37.6a21.09 21.09 0 0 1 -21.07 21.07zm-47.86-67.74a9.08 9.08 0 0 0 -9.07 9.07v37.6a9.08 9.08 0 0 0 9.07 9.07h47.86a9.08 9.08 0 0 0 9.07-9.07v-37.6a9.08 9.08 0 0 0 -9.07-9.07z" fill="#314e5d"/><path d="m157.22 108.08c-9.91.28-20 2.57-29.49 5.31a156.91 156.91 0 0 0 -59.81 32.61 160.76 160.76 0 0 0 -32.28 39.57c-2 3.34 3.22 6.36 5.18 3 22.97-39.1 62.18-66.69 107.18-73.57a76.09 76.09 0 0 1 9.24-1c3.85-.11 3.87-6.11 0-6z" fill="#fff"/></svg>